<svg width="19" height="18" viewBox="0 0 19 18" fill="none" xmlns="http://www.w3.org/2000/svg">
<circle cx="9.82031" cy="9" r="9" fill="#0072B4"/>
<path d="M7.58669 13.5H5.48756V6.74006H7.58669V13.5ZM6.53599 5.81794C5.86476 5.81794 5.32031 5.26195 5.32031 4.59071C5.32031 4.26828 5.44839 3.95906 5.67638 3.73107C5.90436 3.50308 6.21357 3.375 6.53599 3.375C6.85841 3.375 7.16762 3.50308 7.3956 3.73107C7.62359 3.95906 7.75167 4.26828 7.75167 4.59071C7.75167 5.26195 7.207 5.81794 6.53599 5.81794ZM15.4431 13.5H13.3484V10.2093C13.3484 9.42505 13.3326 8.41931 12.2571 8.41931C11.1657 8.41931 10.9984 9.27136 10.9984 10.1528V13.5H8.90158V6.74006H10.9148V7.66217H10.9442C11.2245 7.13105 11.909 6.57055 12.9303 6.57055C15.0548 6.57055 15.4453 7.96955 15.4453 9.78666V13.5H15.4431Z" fill="white"/>
</svg>
